<svg width="80" height="80" viewBox="0 0 80 80" fill="none" xmlns="http://www.w3.org/2000/svg">
<circle opacity="0.1" cx="40" cy="40" r="40" fill="#2F80ED"/>
<g clip-path="url(#clip0_8_309)">
<path fill-rule="evenodd" clip-rule="evenodd" d="M55 22.5H25C24.337 22.5 23.7011 22.7634 23.2322 23.2322C22.7634 23.7011 22.5 24.337 22.5 25V45C22.5 45.663 22.7634 46.2989 23.2322 46.7678C23.7011 47.2366 24.337 47.5 25 47.5H31.25C32.0262 47.5 32.7918 47.6807 33.4861 48.0279C34.1803 48.375 34.7843 48.879 35.25 49.5L40 55.8325L44.75 49.5C45.2157 48.879 45.8197 48.375 46.5139 48.0279C47.2082 47.6807 47.9738 47.5 48.75 47.5H55C55.663 47.5 56.2989 47.2366 56.7678 46.7678C57.2366 46.2989 57.5 45.663 57.5 45V25C57.5 24.337 57.2366 23.7011 56.7678 23.2322C56.2989 22.7634 55.663 22.5 55 22.5ZM25 20C23.6739 20 22.4021 20.5268 21.4645 21.4645C20.5268 22.4021 20 23.6739 20 25V45C20 46.3261 20.5268 47.5979 21.4645 48.5355C22.4021 49.4732 23.6739 50 25 50H31.25C31.6381 50 32.0209 50.0904 32.368 50.2639C32.7152 50.4375 33.0171 50.6895 33.25 51L38 57.3325C38.2329 57.643 38.5348 57.895 38.882 58.0686C39.2291 58.2421 39.6119 58.3325 40 58.3325C40.3881 58.3325 40.7709 58.2421 41.118 58.0686C41.4652 57.895 41.7671 57.643 42 57.3325L46.75 51C46.9829 50.6895 47.2848 50.4375 47.632 50.2639C47.9791 50.0904 48.3619 50 48.75 50H55C56.3261 50 57.5979 49.4732 58.5355 48.5355C59.4732 47.5979 60 46.3261 60 45V25C60 23.6739 59.4732 22.4021 58.5355 21.4645C57.5979 20.5268 56.3261 20 55 20H25Z" fill="#2F80ED"/>
<path fill-rule="evenodd" clip-rule="evenodd" d="M37.6651 31.9C37.1781 31.1416 36.4581 30.5617 35.6133 30.2476C34.7686 29.9335 33.8447 29.902 32.9805 30.1579C32.1163 30.4138 31.3586 30.9433 30.8211 31.6668C30.2837 32.3903 29.9955 33.2687 30.0001 34.17C30.0005 34.9163 30.2014 35.6488 30.5817 36.291C30.962 36.9332 31.5077 37.4614 32.1619 37.8206C32.8162 38.1798 33.5549 38.3567 34.3008 38.3328C35.0468 38.309 35.7726 38.0852 36.4026 37.685C36.0751 38.6575 35.4651 39.695 34.4601 40.735C34.2678 40.9339 34.1624 41.201 34.1671 41.4776C34.1718 41.7542 34.2861 42.0177 34.4851 42.21C34.684 42.4022 34.9511 42.5076 35.2277 42.5029C35.5043 42.4982 35.7678 42.3839 35.9601 42.185C39.6751 38.335 39.1926 34.15 37.6651 31.905V31.9ZM47.6651 31.9C47.1781 31.1416 46.4581 30.5617 45.6133 30.2476C44.7686 29.9335 43.8447 29.902 42.9805 30.1579C42.1163 30.4138 41.3586 30.9433 40.8211 31.6668C40.2837 32.3903 39.9955 33.2687 40.0001 34.17C40.0005 34.9163 40.2014 35.6488 40.5817 36.291C40.962 36.9332 41.5077 37.4614 42.1619 37.8206C42.8162 38.1798 43.5549 38.3567 44.3008 38.3328C45.0468 38.309 45.7726 38.0852 46.4026 37.685C46.0751 38.6575 45.4651 39.695 44.4601 40.735C44.2678 40.9339 44.1624 41.201 44.1671 41.4776C44.1718 41.7542 44.2861 42.0177 44.4851 42.21C44.684 42.4022 44.9511 42.5076 45.2277 42.5029C45.5043 42.4982 45.7678 42.3839 45.9601 42.185C49.6751 38.335 49.1926 34.15 47.6651 31.905V31.9Z" fill="#2F80ED"/>
</g>
<defs>
<clipPath id="clip0_8_309">
<rect width="40" height="40" fill="white" transform="translate(20 20)"/>
</clipPath>
</defs>
</svg>
