<svg width="80" height="80" viewBox="0 0 80 80" fill="none" xmlns="http://www.w3.org/2000/svg">
<circle opacity="0.1" cx="40" cy="40" r="40" fill="#855FCE"/>
<path d="M27.5 20H52.5C53.8261 20 55.0979 20.5268 56.0355 21.4645C56.9732 22.4021 57.5 23.6739 57.5 25V55C57.5 56.3261 56.9732 57.5979 56.0355 58.5355C55.0979 59.4732 53.8261 60 52.5 60H27.5C26.1739 60 24.9021 59.4732 23.9645 58.5355C23.0268 57.5979 22.5 56.3261 22.5 55V52.5H25V55C25 55.663 25.2634 56.2989 25.7322 56.7678C26.2011 57.2366 26.837 57.5 27.5 57.5H52.5C53.163 57.5 53.7989 57.2366 54.2678 56.7678C54.7366 56.2989 55 55.663 55 55V25C55 24.337 54.7366 23.7011 54.2678 23.2322C53.7989 22.7634 53.163 22.5 52.5 22.5H27.5C26.837 22.5 26.2011 22.7634 25.7322 23.2322C25.2634 23.7011 25 24.337 25 25V27.5H22.5V25C22.5 23.6739 23.0268 22.4021 23.9645 21.4645C24.9021 20.5268 26.1739 20 27.5 20Z" fill="#855FCE"/>
<path d="M22.5 32.5V31.25C22.5 30.9185 22.6317 30.6005 22.8661 30.3661C23.1005 30.1317 23.4185 30 23.75 30C24.0815 30 24.3995 30.1317 24.6339 30.3661C24.8683 30.6005 25 30.9185 25 31.25V32.5H26.25C26.5815 32.5 26.8995 32.6317 27.1339 32.8661C27.3683 33.1005 27.5 33.4185 27.5 33.75C27.5 34.0815 27.3683 34.3995 27.1339 34.6339C26.8995 34.8683 26.5815 35 26.25 35H21.25C20.9185 35 20.6005 34.8683 20.3661 34.6339C20.1317 34.3995 20 34.0815 20 33.75C20 33.4185 20.1317 33.1005 20.3661 32.8661C20.6005 32.6317 20.9185 32.5 21.25 32.5H22.5ZM22.5 40V38.75C22.5 38.4185 22.6317 38.1005 22.8661 37.8661C23.1005 37.6317 23.4185 37.5 23.75 37.5C24.0815 37.5 24.3995 37.6317 24.6339 37.8661C24.8683 38.1005 25 38.4185 25 38.75V40H26.25C26.5815 40 26.8995 40.1317 27.1339 40.3661C27.3683 40.6005 27.5 40.9185 27.5 41.25C27.5 41.5815 27.3683 41.8995 27.1339 42.1339C26.8995 42.3683 26.5815 42.5 26.25 42.5H21.25C20.9185 42.5 20.6005 42.3683 20.3661 42.1339C20.1317 41.8995 20 41.5815 20 41.25C20 40.9185 20.1317 40.6005 20.3661 40.3661C20.6005 40.1317 20.9185 40 21.25 40H22.5ZM22.5 47.5V46.25C22.5 45.9185 22.6317 45.6005 22.8661 45.3661C23.1005 45.1317 23.4185 45 23.75 45C24.0815 45 24.3995 45.1317 24.6339 45.3661C24.8683 45.6005 25 45.9185 25 46.25V47.5H26.25C26.5815 47.5 26.8995 47.6317 27.1339 47.8661C27.3683 48.1005 27.5 48.4185 27.5 48.75C27.5 49.0815 27.3683 49.3995 27.1339 49.6339C26.8995 49.8683 26.5815 50 26.25 50H21.25C20.9185 50 20.6005 49.8683 20.3661 49.6339C20.1317 49.3995 20 49.0815 20 48.75C20 48.4185 20.1317 48.1005 20.3661 47.8661C20.6005 47.6317 20.9185 47.5 21.25 47.5H22.5Z" fill="#855FCE"/>
<path fill-rule="evenodd" clip-rule="evenodd" d="M32.5 46.25C32.5 45.9185 32.6317 45.6005 32.8661 45.3661C33.1005 45.1317 33.4185 45 33.75 45H38.75C39.0815 45 39.3995 45.1317 39.6339 45.3661C39.8683 45.6005 40 45.9185 40 46.25C40 46.5815 39.8683 46.8995 39.6339 47.1339C39.3995 47.3683 39.0815 47.5 38.75 47.5H33.75C33.4185 47.5 33.1005 47.3683 32.8661 47.1339C32.6317 46.8995 32.5 46.5815 32.5 46.25ZM32.5 41.25C32.5 40.9185 32.6317 40.6005 32.8661 40.3661C33.1005 40.1317 33.4185 40 33.75 40H46.25C46.5815 40 46.8995 40.1317 47.1339 40.3661C47.3683 40.6005 47.5 40.9185 47.5 41.25C47.5 41.5815 47.3683 41.8995 47.1339 42.1339C46.8995 42.3683 46.5815 42.5 46.25 42.5H33.75C33.4185 42.5 33.1005 42.3683 32.8661 42.1339C32.6317 41.8995 32.5 41.5815 32.5 41.25ZM32.5 36.25C32.5 35.9185 32.6317 35.6005 32.8661 35.3661C33.1005 35.1317 33.4185 35 33.75 35H46.25C46.5815 35 46.8995 35.1317 47.1339 35.3661C47.3683 35.6005 47.5 35.9185 47.5 36.25C47.5 36.5815 47.3683 36.8995 47.1339 37.1339C46.8995 37.3683 46.5815 37.5 46.25 37.5H33.75C33.4185 37.5 33.1005 37.3683 32.8661 37.1339C32.6317 36.8995 32.5 36.5815 32.5 36.25ZM32.5 31.25C32.5 30.9185 32.6317 30.6005 32.8661 30.3661C33.1005 30.1317 33.4185 30 33.75 30H46.25C46.5815 30 46.8995 30.1317 47.1339 30.3661C47.3683 30.6005 47.5 30.9185 47.5 31.25C47.5 31.5815 47.3683 31.8995 47.1339 32.1339C46.8995 32.3683 46.5815 32.5 46.25 32.5H33.75C33.4185 32.5 33.1005 32.3683 32.8661 32.1339C32.6317 31.8995 32.5 31.5815 32.5 31.25Z" fill="#855FCE"/>
</svg>
