<svg width="44" height="44" viewBox="0 0 44 44" fill="none" xmlns="http://www.w3.org/2000/svg">
<rect x="0.5" y="0.5" width="43" height="43" rx="21.5" stroke="#6C87AE"/>
<path d="M21.8699 27.288C20.9953 27.288 20.2539 27.1173 19.6459 26.776C19.0379 26.4347 18.5739 25.9813 18.2539 25.416C17.9446 24.8507 17.7899 24.2373 17.7899 23.576H19.2939C19.2939 24.3013 19.5233 24.8773 19.9819 25.304C20.4513 25.7307 21.0806 25.944 21.8699 25.944C22.3926 25.944 22.8459 25.848 23.2299 25.656C23.6139 25.464 23.9126 25.192 24.1259 24.84C24.3393 24.4773 24.4459 24.056 24.4459 23.576C24.4459 22.8507 24.2113 22.264 23.7419 21.816C23.2833 21.368 22.6646 21.144 21.8859 21.144C21.5553 21.144 21.2673 21.1867 21.0219 21.272C20.7873 21.3467 20.5793 21.4427 20.3979 21.56L19.6299 20.184L24.0939 16.92L23.9339 16.632H18.2539V15.32H25.3739V17.448L21.6779 20.136L20.5579 20.184C20.7393 20.12 20.9366 20.0667 21.1499 20.024C21.3739 19.9813 21.6353 19.96 21.9339 19.96C22.7873 19.96 23.5126 20.12 24.1099 20.44C24.7073 20.76 25.1606 21.1867 25.4699 21.72C25.7899 22.2533 25.9499 22.8347 25.9499 23.464V23.688C25.9499 24.3067 25.7899 24.8933 25.4699 25.448C25.1606 25.992 24.7019 26.4347 24.0939 26.776C23.4966 27.1173 22.7553 27.288 21.8699 27.288Z" fill="#3A8EF6"/>
</svg>
