<svg width="44" height="44" viewBox="0 0 44 44" fill="none" xmlns="http://www.w3.org/2000/svg">
<rect x="0.5" y="0.5" width="43" height="43" rx="21.5" stroke="#6C87AE"/>
<path d="M18.2707 27V25.08C18.2707 24.6107 18.3347 24.2107 18.4627 23.88C18.6014 23.5493 18.836 23.2507 19.1667 22.984C19.4974 22.7067 19.9454 22.44 20.5107 22.184L22.7027 21.176C23.236 20.9307 23.6574 20.616 23.9667 20.232C24.276 19.8373 24.4307 19.3307 24.4307 18.712C24.4307 17.9653 24.2227 17.384 23.8067 16.968C23.3907 16.552 22.804 16.344 22.0467 16.344C21.3 16.344 20.7134 16.552 20.2867 16.968C19.86 17.384 19.6467 17.9653 19.6467 18.712H18.1427C18.1427 18.04 18.2814 17.4213 18.5587 16.856C18.8467 16.2907 19.2787 15.8427 19.8547 15.512C20.4307 15.1707 21.1614 15 22.0467 15C22.932 15 23.6574 15.1707 24.2227 15.512C24.7987 15.8427 25.2254 16.28 25.5027 16.824C25.7907 17.368 25.9347 17.96 25.9347 18.6V18.824C25.9347 19.6667 25.6894 20.376 25.1987 20.952C24.7187 21.528 24.068 22.0027 23.2467 22.376L21.0547 23.384C20.564 23.608 20.2334 23.832 20.0627 24.056C19.892 24.28 19.8067 24.5787 19.8067 24.952V26.424L19.3907 25.688H26.0787V27H18.2707Z" fill="#3A8EF6"/>
</svg>
